<svg width="200" height="200" viewBox="0 0 200 200" fill="none" xmlns="http://www.w3.org/2000/svg">
<rect width="200" height="200" rx="100" fill="#EC5328"/>
<path d="M66.4098 137.3L59.8098 130.7L101.81 88.8C104.343 86.2667 106.776 84 109.11 82C111.443 80 113.676 78.2333 115.81 76.7L114.91 75.8C110.176 78.4 105.61 79.4 101.21 78.8C96.8098 78.1333 92.5431 75.7333 88.4098 71.6L86.8098 70L93.0098 63.8L94.1098 64.8C96.7098 67.2 99.4431 69.0333 102.31 70.3C105.176 71.5667 108.076 72.2 111.01 72.2C114.01 72.2 117.01 71.5 120.01 70.1C123.076 68.7 126.11 66.5 129.11 63.5L130.01 62.6L134.61 67.2L133.61 68.1C130.543 70.9 128.276 73.8333 126.81 76.9C125.343 79.9667 124.576 83.0333 124.51 86.1C124.51 89.1 125.176 92.0667 126.51 95C127.91 97.8667 129.843 100.567 132.31 103.1L133.41 104.2L127.11 110.4L125.51 108.8C121.376 104.667 119.01 100.4 118.41 96C117.81 91.5333 118.776 86.9333 121.31 82.2L120.41 81.3C118.876 83.4333 117.11 85.7 115.11 88.1C113.11 90.4333 110.843 92.8667 108.31 95.4L66.4098 137.3Z" fill="#121E2E"/>
</svg>
